<?xml version="1.0" encoding="utf-8"?>
<!-- Generator: Adobe Illustrator 24.0.2, SVG Export Plug-In . SVG Version: 6.00 Build 0)  -->
<svg version="1.1" id="Layer_1" xmlns="http://www.w3.org/2000/svg" xmlns:xlink="http://www.w3.org/1999/xlink" x="0px" y="0px"
	 viewBox="377.229 464.771 245.763 83.051" enable-background="new 377.229 464.771 245.763 83.051" xml:space="preserve">
<g>
	<path fill="#D80026" d="M435.318,526.754c-3.626,2.102-8.619,3.098-13.454,3.098c-15.872,0-21.864-10.352-21.864-22.336
		c0-13.664,7.568-24.175,23.073-24.175c3.995,0,9.197,1.314,12.772,3.574l-0.632,11.614l-4.468-0.473l-0.893-4.888
		c-0.474-3.048-2.629-4.887-6.727-4.887c-7.621,0-12.298,6.832-12.298,18.238c0,12.298,4.205,18.396,12.037,18.396
		c4.573,0,6.255-1.104,7.147-4.571l1.156-4.049h4.731L435.318,526.754z M451.191,521.077c0,4.046,0.211,4.571,2.417,4.94l1.209,0.21
		v2.891h-16.923v-2.891l1.314-0.21c2.207-0.369,2.418-0.737,2.418-4.888V489.7c0-2.734-0.683-3.312-2.838-3.837l-1.157-0.315
		l0.368-2.735h13.192V521.077z M486.299,528.96c-1.945,0.577-3.784,0.893-5.624,0.893c-5.046,0-6.359-2.206-6.833-4.36
		c-1.576,2.155-4.099,4.36-9.145,4.36c-7.569,0-8.934-5.307-8.934-8.987c0-9.669,10.039-9.776,17.607-10.036v-3.996
		c0-3.102-1.262-5.15-4.888-5.15c-3.206,0-6.306,1.103-9.356,2.523l-1.944-3.994c2.05-1.367,7.043-4.415,13.822-4.415
		c8.252,0,11.931,2.627,11.931,12.351v14.664c0,2.575,0.368,2.995,2.47,3.259l0.894,0.105V528.96L486.299,528.96z M473.37,514.612
		c-5.256-0.158-8.147,0.998-8.147,4.73c0,2.891,1.526,4.363,3.996,4.363c2.365,0,4.152-1.104,4.152-3.468v-5.625H473.37z
		 M501.277,521.077c0,4.046,0.316,4.571,2.577,4.836l2.206,0.263v2.943h-17.868v-2.943l1.156-0.211
		c2.206-0.42,2.366-0.734,2.366-4.887v-17.03c0-2.47-0.42-3.68-2.576-4.099l-1.314-0.264l0.211-2.996h11.509l0.63,0.368l0.788,4.626
		c1.997-3.469,4.468-5.885,7.884-5.885c1.262,0,2.418,0.209,3.523,0.525l-0.736,10.984h-0.788c-4.572-2.733-7.569-3.415-9.568-2.523
		v16.294H501.277z M527.286,521.077c0,4.046,0.316,4.571,2.524,4.94l1.208,0.21v2.891H513.58v-2.891l1.313-0.21
		c2.261-0.369,2.785-0.737,2.785-4.888V504.1c0-2.89-0.631-3.678-2.785-4.205L514,499.684l0.21-2.996h12.457l0.63,0.368v24.021
		H527.286z M545.903,521.077c0,4.046-0.052,4.571,2.207,5.044l0.737,0.106v2.891h-15.978v-2.891l0.944-0.21
		c2.26-0.369,2.525-0.788,2.525-4.94V504.1c0-2.732-0.42-3.678-2.628-4.151l-1.262-0.264l0.212-2.996h11.771l0.633,0.368
		l0.473,3.731c2.786-2.837,6.255-4.991,10.669-4.991c5.308,0,8.566,3.1,8.566,10.353v14.928c0,3.995,0.21,4.676,2.47,4.94
		l1.155,0.21v2.891H552.42v-2.891l0.788-0.106c1.892-0.314,1.996-1.049,1.996-4.675v-14.297c0-3.575-1.419-4.626-4.152-4.626
		c-2.469,0-4.415,0.683-5.151,1.156v17.398H545.903z M530.703,485.968l0.055-0.683l-6.833-4.206l-8.251,9.776l2.943,2.629
		l12.091-7.515H530.703z"/>
	<path fill="#D80026" d="M587.039,496.082c-5.386,1.814,0.032-0.011-5.41,1.832c0,0.022-0.001,0.036-0.001,0.06
		c0,2.506-2.03,4.539-4.536,4.539c-2.508,0-4.54-2.032-4.54-4.539c0-2.507,2.033-4.537,4.54-4.537c1.931,0,3.571,1.215,4.227,2.916
		c3.06-0.833,10.706-3.1,15.342-9.297c-2.114-2.705-5.105-4.671-8.447-5.514c-1.36-0.343-2.58-0.485-3.912-0.495
		c-2.491-0.019-4.869,0.575-6.997,1.64c-1.63,0.814-3.059,1.863-4.303,3.151c-1.57,1.63-2.774,3.388-3.568,5.813
		c-3.066,9.377,4.374,12.584,7.644,12.584c1.001,0,3.89-0.191,6.402-2.268c1.459-1.21,2.905-2.907,3.566-5.884H587.039z
		 M599.969,495.761c-4.059-0.833-7.205-0.539-7.932-0.484c-1.963,10.358-13.507,16.472-9.682,17.027
		c0.708,0.104,1.507,0.151,1.914,0.149c1.931-0.014,3.688-0.307,5.585-1.02c4.201-1.584,8.261-5.286,9.657-10.854
		c0.323-1.285,0.45-2.348,0.48-3.802c0.012-0.335,0.012-0.675-0.012-1.015H599.969z"/>
</g>
</svg>
